<?xml version="1.0" encoding="UTF-8"?><svg id="a" xmlns="http://www.w3.org/2000/svg" viewBox="0 0 399.85 440.2"><defs><style>.b{fill:#fff;}.c{fill:#feff74;}.d{stroke-miterlimit:10;}.d,.e{fill:none;stroke:#000;stroke-width:3px;}.e{stroke-linecap:round;stroke-linejoin:round;}.f{fill:#ffa57c;}.g{fill:#88b04b;}.h{fill:#7f3e00;}</style></defs><g><path class="g" d="M361.17,282.97l-.38-.22c-3.16-6.9-5.03-12.39-6.2-16.32-.76-2.61-1.58-5.73-4.38-8.17-2.1-1.84-4.49-2.59-6.23-2.91-.5-2-1.2-4.57-2.53-7.79-5.6-13.5-14.26-18.66-19.98-27.03,2.28-1.35,5.39-3.09,9.2-4.92,3.8-1.85,7.65-3.56,12.08-5.03,5.07-1.7,10.43-2.92,15.68-2.11,11.54,1.78,18.53,13.32,22.15,19.39,7.29,12.22,8.05,24.45,7.88,31.28l1.15,1.2c3.85-.97,7.6,3.32,8.47,8.2,.85,4.88-.49,9.95-2.31,14.39-4.81,11.8-13.35,21.29-23.44,24.71-3.59,1.21-7.72,1.54-10.68-1.28-2.63-2.49-3.71-6.98-3.52-11.14,.21-4.17,1.5-8.11,2.86-11.9,.04-.11,.1-.24,.15-.35Z"/><path class="g" d="M73.3,280.07c1.04-12.36,4.88-21.84,6.37-25.4,3.82-9.16,7.91-14.43,11.55-18.74,4.69-5.52,8.58-9.44,10.09-17.95,2.71-15.32-7.22-17.93-10.98-42.82-1.21-7.98-3.73-26.11,4.06-46.88,7.38-19.7,20.42-31.71,28.56-39.05,6.95-6.27,19.6-17.46,40.21-24.45,5.87-1.99,11.51-3.35,16.81-4.25,.75,.25,1.52,.5,2.28,.74,.04,.18,.08,.35,.13,.53,5.62,3.5,10.14,3.73,16.04,.76,1.93-.97,3.73-2.17,5.39-3.55,4.07,.15,7.56,.47,10.36,.74,7.76,.72,28.82,3.35,51.79,15.82,10.48,5.69,28.4,15.68,41.75,35.97,3.23,4.91,15.1,23.94,15.49,49.95,.39,26.03-11.15,30.85-6.21,49.31,1.04,3.88,2.61,6.99,4.5,9.75,5.71,8.37,14.38,13.53,19.98,27.03,1.33,3.21,2.03,5.78,2.53,7.79,.06,.19,.1,.38,.14,.56,5.12,20.35-1.06,38.18-3.63,45.61-8.95,26.01-27.68,40.67-37.44,48.09-1.22,.93-2.43,1.82-3.66,2.68-20.05,14.15-40.33,19.63-54.78,22.48-2.95,.58-5.63,1.04-8.04,1.46-6.03,1.04-30.78,4.95-62.83-.63-3.16-.54-6.38-1.18-9.66-1.93-15.35-3.49-30.74-6.99-45.38-15.25h-.01c-5.7-3.25-11.29-7.2-16.71-12.16-5.55-5.07-26.61-24.96-28.78-54.9-.29-3.95-.22-7.74,.08-11.29Zm244.26,6.94c2.11-6.15,8.61-25.01,.78-44.5-6.59-16.41-16.25-15.63-20.19-30.34-4.07-15.21,5.44-19.2,5.12-40.67-.32-21.44-10.11-37.15-12.76-41.19-11.01-16.72-25.79-24.97-34.44-29.67-18.95-10.29-36.31-12.44-42.71-13.05-8.17-.76-23.77-2.06-42.07,4.16-16.99,5.77-27.43,15-33.16,20.17-6.72,6.06-17.48,15.97-23.55,32.21-6.42,17.13-4.35,32.09-3.35,38.66,3.1,20.52,11.29,22.68,9.05,35.31-2.21,12.47-10.65,12.99-17.85,30.25-1.57,3.78-6.37,15.65-5.31,30.27,1.78,24.71,19.16,41.1,23.73,45.28,15.93,14.6,33.63,18.62,51.22,22.61,30.22,6.85,54.32,3.04,59.78,2.11,12.32-2.11,33.98-6.08,54.82-21.95,8.05-6.12,23.5-18.21,30.89-39.66Z"/><path class="c" d="M175.3,142.28c-2.03-5.81-5.44-10.11-10.84-8.76-4.67,1.15-6.52,5.73-6.81,11.18h-.01c-.4,7.31,1.95,16.18,3.95,20.55,.17,.38,.33,.71,.5,1.01,1.81,3.34,4.89,6.73,8.66,6.26,2-.25,3.74-1.61,4.84-3.32,1.08-1.7,1.61-3.7,1.96-5.69,.13-.68,.21-1.56,.26-2.57,.22-4.73-.38-12.54-2.5-18.66Zm18.37,29.67l2.28,.04c-.07,5.81,1.27,11.62,3.88,16.82,.53,1.07,1.14,2.14,2.09,2.86,.96,.74,2.32,1.04,3.36,.47,1-.54,1.46-1.7,1.82-2.78,1.86-5.7,2.53-11.8,1.93-17.77l.07-.79c-.64-.07-1.25-.32-1.81-.63-2.71-1.52-4.23-4.56-4.91-7.6-.67-3.03-.67-6.19-1.21-9.25-.39,5.64-2.15,11.19-5.12,16.02-.6,.97-1.43,1.97-2.39,2.6Zm124.67,70.56c7.83,19.49,1.33,38.36-.78,44.5-7.4,21.45-22.84,33.55-30.89,39.66-20.84,15.88-42.5,19.84-54.82,21.95-5.46,.93-29.56,4.74-59.78-2.11-17.59-3.99-35.29-8.01-51.22-22.61-4.57-4.18-21.95-20.58-23.73-45.28-1.06-14.61,3.74-26.48,5.31-30.27,7.2-17.27,15.64-17.78,17.85-30.25,2.24-12.64-5.95-14.79-9.05-35.31-1-6.58-3.07-21.54,3.35-38.66,6.08-16.24,16.84-26.15,23.55-32.21,5.73-5.17,16.17-14.4,33.16-20.17,18.3-6.21,33.89-4.92,42.07-4.16,6.4,.61,23.76,2.77,42.71,13.05,8.65,4.7,23.43,12.94,34.44,29.67,2.66,4.05,12.44,19.76,12.76,41.19,.32,21.47-9.19,25.46-5.12,40.67,3.93,14.71,13.6,13.93,20.19,30.34Zm-99.32,95.58c25.85-11.57,42.15-37.38,41.14-64.81-1.14-30.34-23.25-56.86-53.97-63.94-31.46,9.82-51.13,40.99-46.6,72.56,4.24,29.59,28.79,53.07,59.43,56.19Zm19.45-177c2.02-4.37,4.37-13.25,3.95-20.55-.29-5.44-2.14-10.01-6.81-11.16-5.41-1.35-8.81,2.93-10.84,8.74-2.14,6.12-2.74,13.93-2.5,18.67,.06,1,.14,1.88,.26,2.56,.33,2,.86,4,1.96,5.7s2.84,3.07,4.84,3.32c3.77,.47,6.85-2.93,8.65-6.27,.17-.29,.33-.63,.5-1h0Z"/><path class="g" d="M294.99,405.54l.71,.03c6.9,1.79,13.76,4.78,17.7,10.01,3.92,5.21,3.85,13.04-1.68,17.02-3.55,2.53-8.43,3.06-13.01,3.17-12.51,.29-25.08-1.71-36.63-5.87l-.04,.11c-5.3-2.15-9.5-6.58-12.22-11.64-2.84-5.28-4.2-11.23-5-17.18-1.2-8.76-1.25-17.66-.18-26.42,14.44-2.85,34.73-8.33,54.78-22.48-.6,23.3-2.31,47.07-4.41,53.25Z"/><path class="h" d="M260.15,273.27c1.01,27.43-15.29,53.25-41.14,64.81-30.64-3.13-55.19-26.61-59.43-56.19-4.53-31.57,15.14-62.74,46.6-72.56,30.73,7.08,52.83,33.6,53.97,63.94Z"/><path d="M242.41,140.54c.42,7.3-1.93,16.18-3.95,20.55-.54-3.59-3.18-6.52-6.69-7.45s-7.26,.31-9.52,3.16c-.24-4.74,.36-12.55,2.5-18.67,.49,4.12,3.67,7.42,7.73,8.06,4.17,.64,8.3-1.7,9.93-5.64Z"/><path class="b" d="M238.46,161.09h0c-.17,.39-.33,.72-.5,1.01-1.79,3.34-4.88,6.74-8.65,6.27-2-.25-3.74-1.63-4.84-3.32s-1.63-3.7-1.96-5.7c-.13-.68-.21-1.56-.26-2.56,2.27-2.85,6.02-4.09,9.52-3.16s6.15,3.86,6.69,7.45Z"/><path class="b" d="M235.6,129.38c4.67,1.15,6.52,5.73,6.81,11.16-1.63,3.95-5.76,6.28-9.93,5.64-4.06-.64-7.24-3.95-7.73-8.06,2.03-5.81,5.44-10.09,10.84-8.74Z"/><path class="g" d="M228.52,5.52c-.89,14.53-7.65,31.5-15.85,43.45-2.53,3.7-5.44,7.23-8.87,10.04-1.67,1.38-3.46,2.57-5.39,3.55-5.91,2.96-10.43,2.74-16.04-.76-.04-.18-.08-.35-.13-.53-.08-.35-.17-.71-.24-1.06-1.77-8.17-1.47-16.78,.75-24.83,.79-2.88,1.85-5.67,3.13-8.36,3.81-7.92,9.79-14.9,17.43-19.07,7.66-4.17,17-5.35,25.21-2.42Z"/><path class="f" d="M209.03,171.6c.6,5.96-.07,12.07-1.93,17.77-.36,1.08-.82,2.24-1.82,2.78-1.04,.57-2.41,.26-3.36-.47-.95-.72-1.56-1.79-2.09-2.86-2.61-5.2-3.95-11.01-3.88-16.82l-2.28-.04c.96-.63,1.79-1.63,2.39-2.6,2.96-4.82,4.73-10.37,5.12-16.02,.54,3.06,.54,6.21,1.21,9.25,.68,3.04,2.2,6.09,4.91,7.6,.56,.31,1.17,.56,1.81,.63l-.07,.79Z"/><path class="g" d="M182,60.2c.07,.35,.15,.71,.24,1.06-.76-.24-1.53-.49-2.28-.74-9.97-3.2-19.85-6.99-27.6-13.92-12.3-10.97-17.31-29.42-12.26-45.1,13.67,1.64,26.42,7.63,34.97,18.42,3.39,4.28,5.94,9.65,7.69,15.45-2.22,8.05-2.52,16.66-.75,24.83Z"/><path d="M175.3,142.28c2.13,6.12,2.72,13.93,2.5,18.66h-.01c-2.25-2.84-6.01-4.07-9.51-3.14-3.52,.93-6.15,3.86-6.7,7.45-2-4.37-4.35-13.24-3.95-20.53,1.64,3.93,5.77,6.27,9.94,5.62,4.06-.63,7.23-3.92,7.73-8.05Z"/><path class="b" d="M177.79,160.94h.01c-.06,1.01-.14,1.89-.26,2.57-.35,1.99-.88,3.99-1.96,5.69-1.1,1.71-2.84,3.07-4.84,3.32-3.77,.47-6.85-2.92-8.66-6.26-.17-.31-.33-.64-.5-1.01,.56-3.59,3.18-6.52,6.7-7.45,3.5-.93,7.26,.31,9.51,3.14Z"/><path class="g" d="M123.08,408.27c-2.07-6.12-3.75-26.85-4.37-49.84,14.64,8.26,30.03,11.76,45.38,15.25,3.28,.75,6.51,1.39,9.66,1.93l-.29,1.72c1.11,8.86,1.07,17.87-.11,26.71-.81,5.95-2.15,11.91-5,17.2-2.71,5.05-6.91,9.48-12.19,11.65l-.04-.11c-11.55,4.16-24.12,6.19-36.63,5.89-4.59-.11-9.47-.63-13.01-3.17-5.55-3.96-5.63-11.79-1.7-17,3.92-5.23,10.79-8.23,17.68-10.02l.63-.21Z"/><path class="b" d="M175.3,142.28c-.5,4.13-3.67,7.42-7.73,8.05-4.17,.65-8.3-1.68-9.94-5.62h.01c.29-5.46,2.14-10.04,6.81-11.19,5.41-1.35,8.81,2.95,10.84,8.76Z"/><polygon class="c" points="157.64 144.7 157.63 144.71 157.63 144.7 157.64 144.7"/><path class="g" d="M90.02,234.84l1.2,1.08c-3.64,4.31-7.73,9.58-11.55,18.74-1.49,3.56-5.32,13.04-6.37,25.4-11.19-5.73-27.67-16.22-41.43-34.53-7.77-10.33-17.92-28.9-19.98-52.69-.17-1.89-.25-3.88,.19-5.69l-.35-.1c-.86,.18-1.58-.64-2.06-1.39-4.89-7.74-6.84-17-7.84-26.12-.46-4.27-.7-8.74,.97-12.71,1.06-2.47,3.1-4.67,5.52-5.76-.82-2.25-1.08-4.74-.35-7.01,.83-2.52,3.06-4.64,5.7-4.88,.17-.01,.33-.03,.5-.03,3.5,0,6.34,3.14,8.23,6.2,2.64,4.25,4.6,8.94,5.8,13.81l1.42,.17c.38-.99,.83-1.93,1.38-2.82,.86-1.4,1.99-2.72,3.32-3.67,1.04-.74,2.2-1.24,3.48-1.38,3.17-.36,6.24,1.68,7.97,4.37,1.71,2.68,2.32,5.91,2.75,9.08,.32,2.47,.56,4.96,.78,7.45h.07c2.49,28.13,17.57,55.01,40.65,72.47Z"/><path class="g" d="M33.58,141.33l.75,1.52c-1.33,.95-2.46,2.27-3.32,3.67-.54,.89-1,1.84-1.38,2.82l-1.42-.17c-1.2-4.87-3.16-9.55-5.8-13.81-1.89-3.06-4.73-6.2-8.23-6.2l.71-.88c-5.03-5.59-6.49-14.13-3.61-21.08,.38-.9,.93-1.89,1.89-2.13,.54-.13,1.13,.01,1.64,.21,3.1,1.14,5.13,4.09,6.83,6.92,5.38,9.05,9.41,18.89,11.94,29.11Z"/></g><g><path class="d" d="M321.29,220.65c.06-.04,.13-.07,.18-.11,2.28-1.35,5.39-3.09,9.2-4.92,3.8-1.85,7.65-3.56,12.08-5.03,5.07-1.7,10.43-2.92,15.68-2.11,11.54,1.78,18.53,13.32,22.15,19.39,7.29,12.22,8.05,24.45,7.88,31.28"/><path class="d" d="M343.66,255.28c.1,.01,.21,.04,.32,.07,1.74,.32,4.13,1.07,6.23,2.91,2.79,2.45,3.61,5.56,4.38,8.17,1.17,3.93,3.04,9.43,6.2,16.32"/><path class="d" d="M362.13,282.49c-.31-.35-.71,.03-.96,.49-.06,.11-.11,.24-.15,.35-1.36,3.8-2.66,7.73-2.86,11.9-.19,4.16,.89,8.65,3.52,11.14,2.96,2.82,7.09,2.49,10.68,1.28,10.09-3.42,18.63-12.9,23.44-24.71,1.82-4.43,3.16-9.51,2.31-14.39-.86-4.88-4.62-9.18-8.47-8.2"/><path class="d" d="M13.08,184.75c-.49,.75-.81,1.56-1,2.41-.44,1.81-.36,3.8-.19,5.69,2.06,23.79,12.21,42.36,19.98,52.69,13.76,18.31,30.24,28.81,41.43,34.53h.01"/><path class="d" d="M49.37,162.37c2.49,28.13,17.57,55.01,40.65,72.47-.56-.42-1.11-.82-1.68-1.24"/><path class="d" d="M11.73,187.06c-.86,.18-1.58-.64-2.06-1.39-4.89-7.74-6.84-17-7.84-26.12-.46-4.27-.7-8.74,.97-12.71,1.06-2.47,3.1-4.67,5.52-5.76,1.42-.65,2.98-.92,4.55-.63"/><path class="d" d="M49.41,163.61c-.04-.42-.07-.82-.11-1.24-.22-2.49-.46-4.98-.78-7.45-.43-3.17-1.04-6.4-2.75-9.08-1.72-2.68-4.8-4.73-7.97-4.37-1.28,.14-2.43,.64-3.48,1.38-1.33,.95-2.46,2.27-3.32,3.67-.54,.89-1,1.84-1.38,2.82-1.15,3.13-1.33,6.63-.04,9.69,.49,1.14,1.22,2.25,2.34,2.79,1.29,.63,2.88,.35,4.14-.36,1.25-.71,2.24-1.81,3.2-2.88"/><path class="d" d="M9.75,157c-.43-.46-.9,.51-.75,1.11,.71,2.77,2.06,5.37,3.91,7.55,1.33,1.57,3.57,3,5.34,1.92,1.39-.86,1.57-2.77,1.53-4.41-.21-7.4-2.13-14.74-5.59-21.29"/><path class="d" d="M8.62,141.82c-.11-.24-.21-.49-.29-.74-.82-2.25-1.08-4.74-.35-7.01,.83-2.52,3.06-4.64,5.7-4.88,.17-.01,.33-.03,.5-.03,3.5,0,6.34,3.14,8.23,6.2,2.64,4.25,4.6,8.94,5.8,13.81"/><path class="d" d="M21.59,156.57c-.7-.15-.81,1-.5,1.67,.93,2.04,2.2,3.95,3.75,5.57,.31,.32,.68,.65,1.13,.61,.32-.04,.57-.26,.78-.5,1.36-1.5,1.9-3.73,1.36-5.67"/><path class="d" d="M14.89,128.29c-5.03-5.59-6.49-14.13-3.61-21.08,.38-.9,.93-1.89,1.89-2.13,.54-.13,1.13,.01,1.64,.21,3.1,1.14,5.13,4.09,6.83,6.92,5.38,9.05,9.41,18.89,11.94,29.11"/><path class="d" d="M190.83,171.93c.19-.15-.28-.35-.33-.11-.07,.22,.17,.42,.39,.51,.96,.4,1.92,.17,2.78-.39,.96-.63,1.79-1.63,2.39-2.6,2.96-4.82,4.73-10.37,5.12-16.02,.54,3.06,.54,6.21,1.21,9.25,.68,3.04,2.2,6.09,4.91,7.6,.56,.31,1.17,.56,1.81,.63,.36,.06,.74,.06,1.11-.03,.99-.22,1.86-1.08,1.86-2.09"/><path class="d" d="M195.95,171.99c-.07,5.81,1.27,11.62,3.88,16.82,.53,1.07,1.14,2.14,2.09,2.86,.96,.74,2.32,1.04,3.36,.47,1-.54,1.46-1.7,1.82-2.78,1.86-5.7,2.53-11.8,1.93-17.77"/><path class="e" d="M179.96,60.52c-9.97-3.2-19.85-6.99-27.6-13.92-12.3-10.97-17.31-29.42-12.26-45.1,13.67,1.64,26.42,7.63,34.97,18.42,3.39,4.28,5.94,9.65,7.69,15.45"/><path class="e" d="M182.24,61.25c-.08-.35-.17-.71-.24-1.06-1.77-8.17-1.47-16.78,.75-24.83,.79-2.88,1.85-5.67,3.13-8.36,3.81-7.92,9.79-14.9,17.43-19.07,7.66-4.17,17-5.35,25.21-2.42-.89,14.53-7.65,31.5-15.85,43.45-2.53,3.7-5.44,7.23-8.87,10.04"/><path class="e" d="M118.72,358.41h-.01c-5.7-3.24-11.29-7.19-16.71-12.15-5.55-5.07-26.61-24.96-28.78-54.9-.29-3.95-.22-7.74,.08-11.29,1.04-12.36,4.88-21.84,6.37-25.4,3.82-9.16,7.91-14.43,11.55-18.74,4.69-5.52,8.58-9.44,10.09-17.95,2.71-15.32-7.22-17.93-10.98-42.82-1.21-7.98-3.73-26.11,4.06-46.88,7.38-19.7,20.42-31.71,28.56-39.05,6.95-6.27,19.6-17.46,40.21-24.45,5.87-1.99,11.51-3.35,16.81-4.25,.75,.25,1.52,.5,2.28,.74,.04,.18,.08,.35,.13,.53,5.62,3.5,10.14,3.73,16.04,.76,1.93-.97,3.73-2.17,5.39-3.55,4.07,.15,7.56,.47,10.36,.74,7.76,.72,28.82,3.35,51.79,15.82,10.48,5.69,28.4,15.68,41.75,35.97,3.23,4.91,15.1,23.94,15.49,49.95,.39,26.03-11.15,30.85-6.21,49.31,1.04,3.88,2.61,6.99,4.5,9.75,5.71,8.37,14.38,13.53,19.98,27.03,1.33,3.21,2.03,5.78,2.53,7.79,.06,.19,.1,.38,.14,.56,5.12,20.35-1.06,38.18-3.63,45.61-8.95,26.01-27.68,40.67-37.44,48.09-1.22,.93-2.43,1.82-3.66,2.68-20.05,14.15-40.33,19.63-54.78,22.48-2.95,.58-5.63,1.04-8.04,1.46-6.03,1.04-30.78,4.95-62.83-.63-3.16-.54-6.38-1.18-9.66-1.93-15.35-3.49-30.74-6.99-45.38-15.25"/><path class="e" d="M138.12,111.92c-6.72,6.06-17.48,15.97-23.55,32.21-6.42,17.13-4.35,32.09-3.35,38.66,3.1,20.52,11.29,22.68,9.05,35.31-2.21,12.47-10.65,12.99-17.85,30.25-1.57,3.78-6.37,15.65-5.31,30.27,1.78,24.71,19.16,41.1,23.73,45.28,15.93,14.6,33.63,18.62,51.22,22.61,30.22,6.85,54.32,3.04,59.78,2.11,12.32-2.11,33.98-6.08,54.82-21.95,8.05-6.12,23.5-18.21,30.89-39.66,2.11-6.15,8.61-25.01,.78-44.5-6.59-16.41-16.25-15.63-20.19-30.34-4.07-15.21,5.44-19.2,5.12-40.67-.32-21.44-10.11-37.15-12.76-41.19-11.01-16.72-25.79-24.97-34.44-29.67-18.95-10.29-36.31-12.44-42.71-13.05-8.17-.76-23.77-2.06-42.07,4.16-16.99,5.77-27.43,15-33.16,20.17Z"/><path class="e" d="M151.82,138.86c.36-5.31,.81-10.84,3.59-15.39,2.78-4.53,8.68-7.63,13.54-5.48,4.12,1.82,6.02,6.53,7.27,10.86"/><path class="e" d="M161.58,165.25c.17,.38,.33,.71,.5,1.01,1.81,3.34,4.89,6.73,8.66,6.26,2-.25,3.74-1.61,4.84-3.32,1.08-1.7,1.61-3.7,1.96-5.69,.13-.68,.21-1.56,.26-2.57,.22-4.73-.38-12.54-2.5-18.66-2.03-5.81-5.44-10.11-10.84-8.76-4.67,1.15-6.52,5.73-6.81,11.18h-.01c-.4,7.31,1.95,16.18,3.95,20.55Z"/><path class="e" d="M157.63,144.7h0c1.64,3.95,5.77,6.28,9.94,5.63,4.06-.63,7.23-3.92,7.73-8.05h0"/><path class="e" d="M161.58,165.25c.56-3.59,3.18-6.52,6.7-7.45,3.5-.93,7.26,.31,9.51,3.14"/><path class="e" d="M248.23,134.72c-.38-5.31-.81-10.86-3.59-15.39s-8.69-7.65-13.54-5.49c-4.12,1.84-6.02,6.53-7.27,10.86"/><path class="e" d="M238.46,161.1c-.17,.38-.33,.71-.5,1-1.79,3.34-4.88,6.74-8.65,6.27-2-.25-3.74-1.63-4.84-3.32s-1.63-3.7-1.96-5.7c-.13-.68-.21-1.56-.26-2.56-.24-4.74,.36-12.55,2.5-18.67,2.03-5.81,5.44-10.09,10.84-8.74,4.67,1.15,6.52,5.73,6.81,11.16,.42,7.3-1.93,16.18-3.95,20.55"/><path class="e" d="M242.41,140.54c-1.63,3.95-5.76,6.28-9.93,5.64-4.06-.64-7.24-3.95-7.73-8.06"/><path class="e" d="M238.46,161.1h0c-.54-3.6-3.18-6.53-6.69-7.47s-7.26,.31-9.52,3.16"/><path class="e" d="M219.01,338.09c-30.64-3.13-55.19-26.61-59.43-56.19-4.53-31.57,15.14-62.74,46.6-72.56,30.73,7.08,52.83,33.6,53.97,63.94,1.01,27.43-15.29,53.25-41.14,64.81Z"/><path class="e" d="M118.72,358.41h0c.61,23.01,2.29,43.74,4.37,49.86,.17,.49,.33,.89,.5,1.18,1.11,1.93,2.68,3.14,2.68,3.14,2.21,1.72,4.77,2.15,7.77,2.28,5.78,.24,11.19-.72,15.42-1.85"/><path class="e" d="M122.46,408.47c-6.9,1.79-13.76,4.8-17.68,10.02-3.93,5.21-3.85,13.04,1.7,17,3.55,2.54,8.43,3.06,13.01,3.17,12.51,.29,25.08-1.74,36.63-5.89"/><path class="e" d="M155.42,433.18c.25-.1,.5-.18,.74-.29,5.28-2.17,9.48-6.6,12.19-11.65,2.85-5.28,4.2-11.25,5-17.2,1.18-8.84,1.22-17.85,.11-26.71"/><path class="e" d="M299.4,352.29c-.6,23.3-2.31,47.07-4.41,53.25-.14,.42-.28,.75-.42,1-1.11,1.93-2.68,3.16-2.68,3.16-2.21,1.71-4.77,2.15-7.77,2.28-5.78,.25-11.19-.71-15.42-1.82"/><path class="e" d="M295.7,405.57c6.9,1.79,13.76,4.78,17.7,10.01,3.92,5.21,3.85,13.04-1.68,17.02-3.55,2.53-8.43,3.06-13.01,3.17-12.51,.29-25.08-1.71-36.63-5.87"/><path class="e" d="M262.76,430.3c-.25-.1-.5-.18-.74-.29-5.3-2.15-9.5-6.58-12.22-11.64-2.84-5.28-4.2-11.23-5-17.18-1.2-8.76-1.25-17.66-.18-26.42,0-.1,.01-.19,.03-.29"/></g></svg>