<?xml version="1.0" encoding="utf-8"?>
<!-- Generator: Adobe Illustrator 26.2.0, SVG Export Plug-In . SVG Version: 6.00 Build 0)  -->
<svg version="1.1" id="레이어_1" xmlns="http://www.w3.org/2000/svg" xmlns:xlink="http://www.w3.org/1999/xlink" x="0px"
	 y="0px" viewBox="0 0 425.2 453.54" style="enable-background:new 0 0 425.2 453.54;" xml:space="preserve">
<style type="text/css">
	.st0{fill:#FFFFFF;}
	.st1{fill:#88B04B;}
	.st2{fill:#FEFF74;}
	.st3{fill:#7F3E00;}
	.st4{fill:none;stroke:#000000;stroke-width:3;stroke-linecap:round;stroke-linejoin:round;}
</style>
<g id="XMLID_00000158729277776706177350000012731556455642078886_">
	<g>
		<path class="st0" d="M194.08,167.57h0.01c-0.06,1.02-0.14,1.89-0.26,2.57c-0.35,1.99-0.86,3.99-1.96,5.69s-2.84,3.08-4.84,3.33
			c-3.77,0.47-6.86-2.92-8.67-6.26c-0.17-0.31-0.33-0.64-0.5-1.02c0.56-3.59,3.19-6.53,6.71-7.46
			C188.07,163.47,191.83,164.71,194.08,167.57z"/>
		<path class="st0" d="M191.59,148.89c-0.5,4.13-3.67,7.43-7.74,8.06c-4.17,0.65-8.31-1.68-9.95-5.62
			c0.31-5.45,2.16-10.05,6.83-11.2C186.15,138.78,189.56,143.08,191.59,148.89z"/>
		<path class="st0" d="M254.81,167.72c-0.17,0.38-0.33,0.71-0.5,1.02c-1.8,3.34-4.88,6.75-8.66,6.28c-2-0.25-3.74-1.63-4.84-3.33
			c-1.1-1.71-1.63-3.72-1.96-5.71c-0.13-0.68-0.21-1.56-0.26-2.57c2.27-2.84,6.03-4.08,9.53-3.14S254.26,164.13,254.81,167.72z"/>
		<path class="st1" d="M396.52,166.7l0.49,0.6c0.07,9.5-2.59,18.81-5.4,27.9c-3.23,10.44-6.72,20.89-12.27,30.31
			c-5.54,9.41-13.33,17.8-23.28,22.32l-0.95,0.53c-6.93-12.58-15.47-14.68-20.23-26.44l0.51-0.19c15.85-9.3,29.04-28.87,28.36-47.24
			l-0.78-0.08c-4.55-2.17-7.01-7.24-6.64-11.98c0.38-4.75,3.23-9.1,6.99-12.33c3.76-3.24,8.38-5.47,13.05-7.4
			c6.83-2.82,14.01-5.13,21.46-5.89c4.1-0.4,8.86-0.08,11.41,2.94c1.36,1.63,1.82,3.77,1.78,5.82c-0.1,6.47-4.61,12.15-9.48,16.75
			C399.93,163.84,398.26,165.31,396.52,166.7z"/>
		<path class="st1" d="M260.97,381.58c-2.95,0.58-5.62,1.04-8.03,1.46c-6.04,1.04-30.82,4.97-62.9-0.63
			c-3.14-0.54-6.37-1.18-9.66-1.93c-15.36-3.49-30.78-7-45.43-15.28c-5.71-3.24-11.3-7.19-16.73-12.16
			c-5.55-5.08-26.65-24.98-28.8-54.95c-1.28-17.73,4.55-32.14,6.46-36.72c0.4-0.99,0.82-1.92,1.24-2.82
			c6.75-14.61,14.15-18.31,18.15-26.63c0.99-2.06,1.77-4.4,2.27-7.26c2.73-15.33-7.21-17.95-10.98-42.86
			c-1.21-7.99-3.73-26.13,4.06-46.92c7.38-19.7,20.44-31.73,28.58-39.09c6.96-6.28,19.62-17.48,40.23-24.48
			c5.89-2,11.54-3.35,16.84-4.26c0.75,0.25,1.52,0.5,2.28,0.74c0.04,0.18,0.08,0.35,0.13,0.53c5.62,3.51,10.14,3.73,16.06,0.77
			c1.93-0.97,3.73-2.17,5.4-3.53c4.08,0.15,7.58,0.46,10.37,0.72c7.76,0.72,28.85,3.35,51.83,15.84c10.49,5.69,28.43,15.7,41.79,36
			c3.23,4.91,15.1,23.98,15.5,50c0.39,26.05-11.16,30.88-6.22,49.36c0.43,1.64,0.93,3.12,1.47,4.47
			c4.76,11.76,13.3,13.86,20.23,26.44c0.96,1.75,1.89,3.7,2.78,5.91c9.5,23.64,1.63,46.55-0.95,53.99
			c-8.96,26.04-27.7,40.72-37.47,48.15c-1.22,0.93-2.45,1.82-3.67,2.69c-20.07,14.15-40.37,19.63-54.81,22.49H260.97z
			 M333.97,293.75c2.12-6.15,8.61-25.03,0.78-44.54c-6.6-16.42-16.27-15.64-20.2-30.36c-4.08-15.24,5.44-19.22,5.12-40.7
			c-0.32-21.47-10.12-37.18-12.77-41.23c-11.02-16.75-25.81-25.01-34.47-29.69c-18.97-10.3-36.35-12.47-42.75-13.07
			c-8.18-0.77-23.79-2.07-42.11,4.16c-17,5.77-27.45,15.01-33.19,20.19c-6.72,6.07-17.49,15.97-23.57,32.23
			c-6.43,17.16-4.36,32.12-3.35,38.7c3.1,20.55,11.31,22.71,9.06,35.36c-2.21,12.48-10.66,12.98-17.87,30.28
			c-1.57,3.78-6.37,15.67-5.32,30.28c1.78,24.73,19.18,41.13,23.75,45.34c15.95,14.61,33.66,18.62,51.26,22.63
			c30.25,6.86,54.37,3.05,59.83,2.12c12.33-2.12,34.01-6.09,54.87-21.97C311.11,327.31,326.57,315.22,333.97,293.75z"/>
		<path class="st2" d="M173.9,151.33c-0.4,7.31,1.95,16.18,3.95,20.55c0.17,0.38,0.33,0.71,0.5,1.02c1.81,3.34,4.9,6.73,8.67,6.26
			c2-0.25,3.74-1.63,4.84-3.33s1.61-3.7,1.96-5.69c0.13-0.68,0.21-1.56,0.26-2.57c0.22-4.73-0.38-12.55-2.5-18.67
			c-2.03-5.82-5.44-10.12-10.85-8.77C176.06,141.28,174.21,145.87,173.9,151.33z M334.75,249.21c7.83,19.51,1.34,38.39-0.78,44.54
			c-7.4,21.47-22.86,33.56-30.92,39.7c-20.86,15.88-42.54,19.86-54.87,21.97c-5.47,0.93-29.58,4.75-59.83-2.12
			c-17.6-4.01-35.32-8.02-51.26-22.63c-4.58-4.2-21.97-20.61-23.75-45.34c-1.06-14.61,3.74-26.49,5.32-30.28
			c7.21-17.3,15.65-17.8,17.87-30.28c2.25-12.65-5.96-14.81-9.06-35.36c-1-6.58-3.08-21.54,3.35-38.7
			c6.08-16.25,16.85-26.16,23.57-32.23c5.73-5.18,16.18-14.42,33.19-20.19c18.31-6.23,33.93-4.93,42.11-4.16
			c6.4,0.6,23.78,2.77,42.75,13.07c8.66,4.69,23.45,12.94,34.47,29.69c2.66,4.05,12.45,19.76,12.77,41.23
			c0.32,21.48-9.2,25.46-5.12,40.7C318.48,233.57,328.15,232.79,334.75,249.21z M235.34,344.87c25.87-11.58,42.19-37.42,41.17-64.87
			c-1.14-30.36-23.27-56.91-54.02-64c-31.49,9.82-51.18,41.01-46.64,72.62C180.1,318.22,204.67,341.74,235.34,344.87z
			 M254.81,167.72c2.02-4.37,4.37-13.26,3.95-20.57c-0.29-5.45-2.14-10.03-6.82-11.19c-5.41-1.35-8.82,2.95-10.85,8.77
			c-2.13,6.12-2.73,13.93-2.5,18.67c0.06,1.02,0.14,1.89,0.26,2.57c0.33,1.99,0.86,3.99,1.96,5.71c1.1,1.7,2.84,3.08,4.84,3.33
			c3.77,0.47,6.86-2.94,8.66-6.28C254.47,168.43,254.64,168.09,254.81,167.72z"/>
		<path class="st1" d="M311.38,412.39l0.71,0.03c6.9,1.78,13.78,4.79,17.71,10c3.92,5.23,3.85,13.07-1.68,17.03
			c-3.55,2.55-8.43,3.08-13.02,3.19c-12.52,0.29-25.1-1.71-36.67-5.87l-0.04,0.11c-5.3-2.17-9.5-6.6-12.23-11.65
			c-2.84-5.29-4.2-11.26-5.01-17.2c-1.2-8.77-1.25-17.67-0.18-26.45h0.01c14.44-2.85,34.75-8.34,54.81-22.49
			C315.2,382.41,313.49,406.21,311.38,412.39z"/>
		<path class="st3" d="M276.51,280c1.02,27.45-15.31,53.29-41.17,64.87c-30.67-3.13-55.24-26.65-59.49-56.24
			c-4.54-31.62,15.15-62.8,46.64-72.62C253.25,223.09,275.37,249.64,276.51,280z"/>
		<path d="M258.76,147.15c0.42,7.31-1.93,16.2-3.95,20.57c-0.54-3.59-3.19-6.53-6.69-7.46s-7.26,0.31-9.53,3.14
			c-0.22-4.75,0.38-12.55,2.5-18.67c0.49,4.12,3.67,7.43,7.74,8.06C253,153.44,257.13,151.1,258.76,147.15z"/>
		<path class="st0" d="M251.94,135.96c4.68,1.15,6.53,5.73,6.82,11.19c-1.63,3.95-5.76,6.29-9.94,5.64
			c-4.06-0.63-7.25-3.94-7.74-8.06C243.12,138.91,246.53,134.61,251.94,135.96z"/>
		<path class="st1" d="M244.87,11.99c-0.89,14.54-7.65,31.53-15.86,43.48c-2.53,3.7-5.44,7.24-8.88,10.06
			c-1.67,1.36-3.46,2.56-5.4,3.53c-5.91,2.96-10.44,2.74-16.06-0.77c-0.04-0.18-0.08-0.35-0.13-0.53c-0.08-0.35-0.17-0.71-0.24-1.06
			c-1.77-8.18-1.48-16.8,0.75-24.85c0.79-2.88,1.85-5.68,3.13-8.36c3.81-7.93,9.8-14.92,17.45-19.09
			C227.31,10.24,236.66,9.06,244.87,11.99z"/>
		<path class="st1" d="M198.31,66.72c0.07,0.35,0.15,0.71,0.24,1.06c-0.77-0.24-1.53-0.49-2.28-0.74c-9.98-3.2-19.87-7-27.62-13.93
			c-12.31-10.98-17.32-29.44-12.27-45.14c13.68,1.64,26.44,7.64,35,18.44c3.4,4.29,5.94,9.66,7.7,15.46
			C196.83,49.93,196.54,58.54,198.31,66.72z"/>
		<path d="M191.59,148.89c2.13,6.12,2.73,13.94,2.5,18.67h-0.01c-2.25-2.85-6.01-4.09-9.52-3.14c-3.52,0.93-6.15,3.87-6.71,7.46
			c-2-4.37-4.36-13.25-3.95-20.55c1.64,3.94,5.77,6.28,9.95,5.62C187.92,156.32,191.09,153.02,191.59,148.89z"/>
		<path class="st1" d="M139.34,415.12c-2.09-6.12-3.77-26.87-4.38-49.91c14.65,8.28,30.07,11.79,45.43,15.28
			c3.28,0.75,6.51,1.39,9.66,1.93l-0.29,1.74c1.11,8.86,1.07,17.87-0.11,26.73c-0.81,5.96-2.16,11.91-5.01,17.21
			c-2.71,5.05-6.92,9.49-12.2,11.66l-0.04-0.11c-11.56,4.16-24.14,6.18-36.67,5.89c-4.59-0.1-9.48-0.61-13.02-3.16
			c-5.55-3.97-5.64-11.8-1.7-17.03c3.92-5.22,10.8-8.22,17.7-10.02L139.34,415.12z"/>
		<path class="st1" d="M40.61,193.06c-5.22,1.13-11.08,1.35-15.52-1.38c-4.19-2.57-7.39-4.54-9.71-8.84
			c-2.91-5.39-0.22-12.4,4.54-16.32c4.76-3.92,11.06-5.44,17.16-6.61c5.25-1.02,7.99-0.97,9.04-0.9c2.45,0.15,6.93,0.5,11.44,3.42
			c4.51,2.89,6.58,6.76,7.57,8.66c2.59,5,2.25,8.38,3.1,12.61c1.27,6.26,4.38,10.23,10.63,18.16c10.52,13.36,29.04,24.92,36.4,30.06
			c-3.99,8.32-11.4,12.02-18.15,26.63l-2.06-0.64C70.43,243.18,50.93,220,40.64,193.2L40.61,193.06z"/>
	</g>
	<g>
		<path class="st4" d="M335.39,221.72c15.85-9.3,29.04-28.87,28.36-47.24"/>
		<path class="st4" d="M362.97,174.4c-4.55-2.17-7.01-7.24-6.64-11.98c0.38-4.75,3.23-9.1,6.99-12.33c3.76-3.24,8.38-5.47,13.05-7.4
			c6.83-2.82,14.01-5.13,21.46-5.89c4.1-0.4,8.86-0.08,11.41,2.94c1.36,1.63,1.82,3.77,1.78,5.82c-0.1,6.47-4.61,12.15-9.48,16.75
			c-1.61,1.53-3.28,3.01-5.02,4.4c-2,1.63-4.09,3.17-6.25,4.62"/>
		<path class="st4" d="M397,167.3c0.07,9.5-2.59,18.81-5.4,27.9c-3.23,10.44-6.72,20.89-12.27,30.31
			c-5.54,9.41-13.33,17.8-23.28,22.32"/>
		<path class="st4" d="M48,190.86c-2.1,0.79-4.66,1.61-7.39,2.2c-5.22,1.13-11.08,1.35-15.52-1.38c-4.19-2.57-7.39-4.54-9.71-8.84
			c-2.91-5.39-0.22-12.4,4.54-16.32c4.76-3.92,11.06-5.44,17.16-6.61c5.25-1.02,7.99-0.97,9.04-0.9c2.45,0.15,6.93,0.5,11.44,3.42
			c4.51,2.89,6.58,6.76,7.57,8.66c2.59,5,2.25,8.38,3.1,12.61c1.27,6.26,4.38,10.23,10.63,18.16c10.52,13.36,29.04,24.92,36.4,30.06
			"/>
		<path class="st4" d="M40.64,193.2c10.3,26.8,29.79,49.98,54.42,64.71"/>
		<path class="st4" d="M199.06,41.87c0.79-2.88,1.85-5.68,3.13-8.36c3.81-7.93,9.8-14.92,17.45-19.09
			c7.67-4.17,17.02-5.36,25.23-2.42c-0.89,14.54-7.65,31.53-15.86,43.48c-2.53,3.7-5.44,7.24-8.88,10.06"/>
		<path class="st4" d="M196.26,67.04c-9.98-3.2-19.87-7-27.62-13.93c-12.31-10.98-17.32-29.44-12.27-45.14
			c13.68,1.64,26.44,7.64,35,18.44c3.4,4.29,5.94,9.66,7.7,15.46c-2.23,8.06-2.52,16.67-0.75,24.85c0.07,0.35,0.15,0.71,0.24,1.06"
			/>
		<path class="st4" d="M355.11,248.36c0.96,1.75,1.89,3.7,2.78,5.91c9.5,23.64,1.63,46.55-0.95,53.99
			c-8.96,26.04-27.7,40.72-37.47,48.15c-1.22,0.93-2.45,1.82-3.67,2.69c-20.07,14.15-40.37,19.63-54.81,22.49h-0.01
			c-2.95,0.58-5.62,1.04-8.03,1.46c-6.04,1.04-30.82,4.97-62.9-0.63c-3.14-0.54-6.37-1.18-9.66-1.93
			c-15.36-3.49-30.78-7-45.43-15.28c-5.71-3.24-11.3-7.19-16.73-12.16c-5.55-5.08-26.65-24.98-28.8-54.95
			c-1.28-17.73,4.55-32.14,6.46-36.72c0.4-0.99,0.82-1.92,1.24-2.82c6.75-14.61,14.15-18.31,18.15-26.63
			c0.99-2.06,1.77-4.4,2.27-7.26c2.73-15.33-7.21-17.95-10.98-42.86c-1.21-7.99-3.73-26.13,4.06-46.92
			c7.38-19.7,20.44-31.73,28.58-39.09c6.96-6.28,19.62-17.48,40.23-24.48c5.89-2,11.54-3.35,16.84-4.26
			c0.75,0.25,1.52,0.5,2.28,0.74c0.04,0.18,0.08,0.35,0.13,0.53c5.62,3.51,10.14,3.73,16.06,0.77c1.93-0.97,3.73-2.17,5.4-3.53
			c4.08,0.15,7.58,0.46,10.37,0.72c7.76,0.72,28.85,3.35,51.83,15.84c10.49,5.69,28.43,15.7,41.79,36c3.23,4.91,15.1,23.98,15.5,50
			c0.39,26.05-11.16,30.88-6.22,49.36c0.43,1.64,0.93,3.12,1.47,4.47C339.63,233.68,348.18,235.78,355.11,248.36z"/>
		<path class="st4" d="M154.38,118.5c-6.72,6.07-17.49,15.97-23.57,32.23c-6.43,17.16-4.36,32.12-3.35,38.7
			c3.1,20.55,11.31,22.71,9.06,35.36c-2.21,12.48-10.66,12.98-17.87,30.28c-1.57,3.78-6.37,15.67-5.32,30.28
			c1.78,24.73,19.18,41.13,23.75,45.34c15.95,14.61,33.66,18.62,51.26,22.63c30.25,6.86,54.37,3.05,59.83,2.12
			c12.33-2.12,34.01-6.09,54.87-21.97c8.06-6.14,23.52-18.23,30.92-39.7c2.12-6.15,8.61-25.03,0.78-44.54
			c-6.6-16.42-16.27-15.64-20.2-30.36c-4.08-15.24,5.44-19.22,5.12-40.7c-0.32-21.47-10.12-37.18-12.77-41.23
			c-11.02-16.75-25.81-25.01-34.47-29.69c-18.97-10.3-36.35-12.47-42.75-13.07c-8.18-0.77-23.79-2.07-42.11,4.16
			C170.56,104.08,160.11,113.32,154.38,118.5z"/>
		<path class="st4" d="M168.09,145.47c0.36-5.32,0.81-10.85,3.59-15.4c2.78-4.54,8.68-7.65,13.55-5.48
			c4.12,1.82,6.03,6.53,7.28,10.87"/>
		<path class="st4" d="M177.85,171.88c0.17,0.38,0.33,0.71,0.5,1.02c1.81,3.34,4.9,6.73,8.67,6.26c2-0.25,3.74-1.63,4.84-3.33
			s1.61-3.7,1.96-5.69c0.13-0.68,0.21-1.56,0.26-2.57c0.22-4.73-0.38-12.55-2.5-18.67c-2.03-5.82-5.44-10.12-10.85-8.77
			c-4.68,1.15-6.53,5.75-6.83,11.2C173.5,158.63,175.85,167.51,177.85,171.88z"/>
		<path class="st4" d="M173.9,151.31v0.01c1.64,3.94,5.77,6.28,9.95,5.62c4.06-0.63,7.24-3.92,7.74-8.06v-0.01"/>
		<path class="st4" d="M177.85,171.88c0.56-3.59,3.19-6.53,6.71-7.46c3.51-0.95,7.26,0.29,9.52,3.14"/>
		<path class="st4" d="M264.59,141.32c-0.38-5.32-0.81-10.87-3.59-15.4c-2.78-4.55-8.7-7.65-13.55-5.5
			c-4.12,1.84-6.03,6.54-7.28,10.87"/>
		<path class="st4" d="M254.81,167.72c-0.17,0.38-0.33,0.71-0.5,1.02c-1.8,3.34-4.88,6.75-8.66,6.28c-2-0.25-3.74-1.63-4.84-3.33
			c-1.1-1.71-1.63-3.72-1.96-5.71c-0.13-0.68-0.21-1.56-0.26-2.57c-0.22-4.75,0.38-12.55,2.5-18.67c2.03-5.82,5.44-10.12,10.85-8.77
			c4.68,1.15,6.53,5.73,6.82,11.19C259.17,154.46,256.82,163.35,254.81,167.72z"/>
		<path class="st4" d="M258.76,147.15c-1.63,3.95-5.76,6.29-9.94,5.64c-4.06-0.63-7.25-3.94-7.74-8.06"/>
		<path class="st4" d="M254.81,167.72c-0.54-3.59-3.19-6.53-6.69-7.46s-7.26,0.31-9.53,3.14"/>
		<path class="st4" d="M235.34,344.87c-30.67-3.13-55.24-26.65-59.49-56.24c-4.54-31.62,15.15-62.8,46.64-72.62
			c30.75,7.08,52.88,33.63,54.02,64C277.53,307.45,261.21,333.29,235.34,344.87z"/>
		<path class="st4" d="M134.95,365.2c0.61,23.04,2.3,43.79,4.38,49.91c0.15,0.49,0.32,0.89,0.49,1.18c1.11,1.92,2.69,3.14,2.69,3.14
			c2.21,1.71,4.77,2.14,7.78,2.28c5.79,0.24,11.2-0.72,15.43-1.85"/>
		<path class="st4" d="M138.7,415.32c-6.9,1.8-13.78,4.8-17.7,10.02c-3.94,5.23-3.85,13.07,1.7,17.03
			c3.55,2.55,8.43,3.06,13.02,3.16c12.52,0.29,25.1-1.73,36.67-5.89"/>
		<path class="st4" d="M171.69,440.05c0.25-0.1,0.5-0.18,0.74-0.29c5.29-2.17,9.49-6.61,12.2-11.66c2.85-5.3,4.2-11.26,5.01-17.21
			c1.18-8.86,1.22-17.87,0.11-26.73"/>
		<path class="st4" d="M315.8,359.09c-0.6,23.32-2.31,47.12-4.41,53.29c-0.14,0.42-0.28,0.75-0.42,1c-1.11,1.93-2.69,3.16-2.69,3.16
			c-2.21,1.71-4.76,2.14-7.78,2.28c-5.79,0.25-11.2-0.71-15.43-1.84"/>
		<path class="st4" d="M312.09,412.42c6.9,1.78,13.78,4.79,17.71,10c3.92,5.23,3.85,13.07-1.68,17.03
			c-3.55,2.55-8.43,3.08-13.02,3.19c-12.52,0.29-25.1-1.71-36.67-5.87"/>
		<path class="st4" d="M279.13,437.17c-0.25-0.1-0.5-0.18-0.74-0.29c-5.3-2.17-9.5-6.6-12.23-11.65c-2.84-5.29-4.2-11.26-5.01-17.2
			c-1.2-8.77-1.25-17.67-0.18-26.45c0-0.1,0.01-0.19,0.03-0.29"/>
		<path class="st4" d="M216.12,172.09c0.01,0.78,0,1.57-0.06,2.37c-0.22,3.52-1.1,7-3.31,9.09c-0.54,0.51-1.15,0.92-1.78,1.27
			c-4.36,2.41-9.66,1.92-13.68-1.22"/>
		<path class="st4" d="M216.05,174.4c0,0.01,0,0.04,0.01,0.06c0.43,3.91,2.64,7.47,5.58,8.96c1.07,0.53,2.21,0.82,3.35,1.03
			c1.86,0.35,3.77,0.51,5.62,0.04c1.85-0.46,3.63-1.61,4.76-3.49"/>
	</g>
</g>
<g>
	<g>
		<g>
			<path d="M301.85,44.73c3.21-1.63,6.65-2.9,10.2-3.53c3.21-0.57,6.96,0.15,7.88,3.76c0.83,3.24-0.83,6.45-2.65,9.02
				c-1.32,1.87-4.33,6.92-7.25,5.68c-1.35-0.57-2.79,0.62-2.05,2.05c1.73,3.36-1.62,7.49-2.34,10.71c-0.42,1.88,2.47,2.68,2.89,0.8
				c0.98-4.39,4.41-8.44,2.04-13.03c-0.68,0.68-1.37,1.37-2.05,2.05c4.6,1.95,7.83-2.09,10.33-5.37c2.62-3.45,4.88-7.44,4.14-11.93
				c-0.71-4.32-4.5-6.93-8.73-6.95c-4.76-0.01-9.75,2.02-13.92,4.15C298.62,43.02,300.13,45.61,301.85,44.73L301.85,44.73z"/>
		</g>
	</g>
	<g>
		<g>
			<path d="M305.57,79.49c1.93,0,1.93-3,0-3C303.64,76.49,303.64,79.49,305.57,79.49L305.57,79.49z"/>
		</g>
	</g>
	<g>
		<g>
			<path d="M334.59,50.58c3.36-1.19,7.61-1.58,10.78,0.38c3.4,2.11,2.45,6.28,1.38,9.47c-1.04,3.09-2.57,6.52-5.33,8.45
				c-2.25,1.58-5.59,1.64-7.01-1.02c-0.6-1.12-2.45-0.89-2.74,0.36c-0.75,3.17-1.5,6.35-2.25,9.52c-0.44,1.88,2.45,2.68,2.89,0.8
				c0.75-3.17,1.5-6.35,2.25-9.52c-0.91,0.12-1.83,0.24-2.74,0.36c1.49,2.78,4.54,3.98,7.59,3.49c3.28-0.53,5.78-2.95,7.51-5.66
				c3.47-5.45,6.74-15.4-0.62-19.17c-3.82-1.95-8.54-1.75-12.5-0.35C331.98,48.33,332.76,51.22,334.59,50.58L334.59,50.58z"/>
		</g>
	</g>
	<g>
		<g>
			<path d="M324.41,88.32c0.09,0.18,0.17,0.36,0.26,0.53c0.09,0.17,0.22,0.32,0.39,0.42c0.14,0.13,0.31,0.22,0.51,0.27
				c0.2,0.06,0.4,0.07,0.6,0.03c0.2-0.01,0.39-0.07,0.56-0.18c0.1-0.08,0.2-0.16,0.3-0.23c0.19-0.19,0.31-0.41,0.39-0.66
				c0.02-0.13,0.04-0.27,0.05-0.4c0-0.27-0.07-0.52-0.2-0.76c-0.09-0.18-0.17-0.36-0.26-0.53c-0.09-0.17-0.22-0.32-0.39-0.42
				c-0.14-0.13-0.31-0.22-0.51-0.27c-0.2-0.06-0.4-0.07-0.6-0.03c-0.2,0.01-0.39,0.07-0.56,0.18c-0.1,0.08-0.2,0.16-0.3,0.23
				c-0.19,0.19-0.31,0.41-0.39,0.66c-0.02,0.13-0.04,0.27-0.05,0.4C324.2,87.83,324.27,88.09,324.41,88.32L324.41,88.32z"/>
		</g>
	</g>
	<g>
		<g>
			<g>
				<path d="M364.17,64.91c2.55-0.77,5.21-0.76,7.51,0.71c2.3,1.47,3.28,3.8,2.42,6.46c-0.83,2.57-3.42,4.61-5.46,6.24
					c-1.24,0.99-5.22,4.23-5.49,0.85c-0.12-1.46-1.97-2.07-2.8-0.76c-1.23,1.94-1.17,4.36-2.42,6.28c-1.49,2.3-3.42,4.39-5.13,6.54
					c-1.19,1.5,0.92,3.63,2.12,2.12c1.79-2.25,3.7-4.44,5.35-6.79c0.69-0.97,1.16-2.05,1.48-3.19c0.33-1.18,0.52-2.4,1.18-3.45
					c-0.93-0.25-1.86-0.5-2.8-0.76c0.13,1.67,0.74,3.3,2.3,4.12c1.7,0.9,3.67,0.23,5.22-0.65c1.81-1.03,3.45-2.42,4.97-3.82
					c1.5-1.38,3.02-2.89,3.89-4.76c1.66-3.57,0.94-7.59-2.1-10.12c-3.14-2.61-7.21-3.08-11.06-1.92
					C361.53,62.57,362.31,65.47,364.17,64.91L364.17,64.91z"/>
			</g>
		</g>
	</g>
	<g>
		<g>
			<path d="M346.12,101.47c0.35,0.16,0.7,0.32,1.05,0.48c0.17,0.11,0.36,0.17,0.56,0.18c0.2,0.04,0.4,0.04,0.6-0.03
				c0.2-0.05,0.37-0.14,0.51-0.27c0.16-0.11,0.29-0.25,0.39-0.42c0.05-0.12,0.1-0.24,0.15-0.36c0.07-0.27,0.07-0.53,0-0.8
				c-0.05-0.12-0.1-0.24-0.15-0.36c-0.13-0.23-0.31-0.4-0.54-0.54c-0.35-0.16-0.7-0.32-1.05-0.48c-0.17-0.11-0.36-0.17-0.56-0.18
				c-0.2-0.04-0.4-0.04-0.6,0.03c-0.2,0.05-0.37,0.14-0.51,0.27c-0.16,0.11-0.29,0.25-0.39,0.42c-0.05,0.12-0.1,0.24-0.15,0.36
				c-0.07,0.27-0.07,0.53,0,0.8c0.05,0.12,0.1,0.24,0.15,0.36C345.72,101.16,345.9,101.34,346.12,101.47L346.12,101.47z"/>
		</g>
	</g>
</g>
</svg>
