<?xml version="1.0" encoding="UTF-8"?><svg id="a" xmlns="http://www.w3.org/2000/svg" viewBox="0 0 459.14 193.89"><defs><style>.b,.c{stroke-width:.84px;}.b,.c,.d,.e,.f,.g,.h{stroke-miterlimit:10;}.b,.c,.d,.e,.f,.h{stroke:#231815;}.b,.h{fill:#ffdd74;}.i{stroke-linecap:round;stroke-linejoin:round;}.i,.g{fill:none;stroke:#000;stroke-width:.5px;}.j{fill:#fff;}.c,.e{fill:#58c07d;}.d{stroke-width:.57px;}.d,.k{fill:#feff74;}.e,.h{stroke-width:1.13px;}.f{fill:#fff0c1;stroke-width:1.23px;}.l{fill:#ffa57c;}.m{fill:#88b04b;}.n{fill:#7f3e00;}</style></defs><path class="f" d="M229.57,.61C103.12,.61,.61,43.01,.61,95.3c0,16.31,9.97,31.65,27.53,45.05l-.34-.19-.06,.08-11.13,52.45,52.94-29.68c41.28,16.69,97.74,26.98,160.02,26.98,126.45,0,228.96-42.39,228.96-94.69S356.02,.61,229.57,.61Z"/><g><path class="c" d="M96.03,137.34c0,.52-.36,.88-1.08,1.08-.86,.23-3.54,.35-8.04,.35-4.12,0-6.77-.12-7.95-.35-.98-.2-1.6-.85-1.86-1.95-.98-4.15-1.74-6.37-2.29-6.66-.46-.2-4.32-.3-11.59-.3-4.9,0-7.51,.13-7.83,.39-.49,.46-1.04,2-1.64,4.63-.55,2.39-1.21,3.69-1.99,3.89-.98,.23-4.27,.35-9.86,.35-4.41,0-6.61-.42-6.61-1.25,0-.75,3.26-9.96,9.77-27.62,7.06-19.11,10.89-29.61,11.5-31.52,.35-1.1,.75-1.64,1.21-1.64,.78,0,1.98,.07,3.61,.22,1.63,.14,2.85,.22,3.65,.22s1.92-.05,3.44-.15,2.64-.15,3.39-.15c.55,0,1.05,.48,1.51,1.43,1.41,3.03,5.53,13.4,12.36,31.13,6.86,17.84,10.29,27.15,10.29,27.93Zm-30.65-39.38c-.6,1.27-1.63,4.02-3.07,8.26-1.56,4.5-2.33,7.13-2.33,7.91,0,.52,.86,.81,2.59,.87,.89,.06,2.36,.09,4.41,.09,1.9,0,2.95-.23,3.16-.69,.06-.14,.09-.35,.09-.61,0-.95-.66-3.57-1.99-7.87-1.3-4.15-2.25-6.8-2.85-7.96Z"/><path class="c" d="M143.11,137.17c0,.78-.4,1.23-1.21,1.34-.81,.11-2.91,.17-6.31,.17-3.63,0-5.88-.09-6.74-.26-.86-.17-1.3-.76-1.3-1.77,0-1.35,.04-3.4,.13-6.14s.13-4.8,.13-6.18c0-1.07-.03-2.66-.09-4.78-.06-2.12-.09-3.71-.09-4.78,0-3.95-1.72-5.92-5.15-5.92-1.12,0-2.44,.49-3.93,1.47-1.61,1.1-2.42,2.18-2.42,3.24v23.35c0,.95-.45,1.48-1.34,1.6-1.01,.11-3.07,.17-6.18,.17-3.37,0-5.56-.09-6.57-.26-.89-.14-1.34-.62-1.34-1.43,0-2.25,.01-5.63,.04-10.16,.03-4.53,.04-7.93,.04-10.2,0-7.18-.56-12.81-1.69-16.9-.06-.26-.09-.48-.09-.65,0-.46,.22-.78,.65-.95,1.82-.2,4.24-.52,7.26-.95,4.58-.89,7.16-1.34,7.74-1.34,.32,0,.56,.97,.74,2.92,.17,1.95,.42,2.92,.73,2.92-.32,0,1.23-1,4.65-3s6.41-3,8.97-3c3.66,0,6.72,.86,9.17,2.59,2.74,1.99,4.11,4.76,4.11,8.3v13.79c0,1.87,.01,4.68,.04,8.41s.04,6.54,.04,8.41Z"/><path class="c" d="M196.16,77.08c0-.63-.12,.32-.35,2.85-.32,3.2-.56,7.29-.73,12.28-.23,5.65-.35,12.08-.35,19.28,0,11.9,.33,20.38,.99,25.42,.06,.55,.09,.89,.09,1.04,0,.32-.22,.5-.65,.56-1.04,.14-4.86,.22-11.46,.22-1.56,0-2.45-.3-2.68-.91-.06-1.09-.12-2.19-.17-3.29-.03-.23-.14-.46-.35-.69-.17,.09-.39,.26-.65,.52-3.11,3.05-7,4.58-11.67,4.58-6.08,0-10.95-2.13-14.61-6.4-3.49-4.06-5.23-9.19-5.23-15.39s1.71-11.46,5.14-15.52c3.63-4.32,8.53-6.48,14.7-6.48,4.35,0,7.74,1.38,10.16,4.15,.4,.46,.69,.69,.86,.69,.26,0,.39-.37,.39-1.12,0-2.22-.06-5.53-.17-9.94-.12-4.41-.17-7.71-.17-9.9,0-.84,.23-1.31,.69-1.43,1.84-.09,4.38-.26,7.61-.52,5.76-.72,8.31-1.08,7.65-1.08,.63,0,.95,.36,.95,1.08Zm-16.3,39.73c0-2.28-.79-4.27-2.38-5.99-1.59-1.71-3.5-2.57-5.75-2.57-2.36,0-4.24,.86-5.64,2.57-1.4,1.71-2.1,3.77-2.1,6.16s.71,4.31,2.12,5.92c1.44,1.73,3.31,2.59,5.62,2.59s4.24-.86,5.79-2.59c1.56-1.73,2.33-3.76,2.33-6.1Z"/><path class="b" d="M242.59,139.16c-2.48,0-5.71-.06-9.68-.17-5.19-.12-8.42-.19-9.68-.22l-12.93-.17c-1.3,.03-3.16-.03-5.58-.17-.84-.14-1.25-.59-1.25-1.34,0-3.14,.05-7.85,.15-14.12,.1-6.27,.15-10.97,.15-14.12,0-3.34-.1-8.35-.3-15.02s-.3-11.68-.3-15.02c0-.63,.43-.95,1.3-.95s2.15,.04,3.87,.13c1.71,.09,2.99,.13,3.83,.13,.95,0,2.36-.05,4.24-.15,1.87-.1,3.29-.15,4.24-.15,.43,0,.63,.27,.6,.82l-.04,.56c-.35,5.42-.73,13.56-1.17,24.43l-.04,11.41c0,3.69,.01,6.38,.04,8.08,.03,.35,.06,.69,.09,1.04,.03,.35,.24,.56,.65,.65h1.12c2.59,0,6.48-.14,11.65-.41,5.17-.27,9.06-.41,11.65-.41,.78,0,1.17,.33,1.17,.99,0,4.93-.36,9.18-1.08,12.75-.14,.75-.45,1.2-.91,1.34-.14,.06-.73,.09-1.77,.09Z"/><path class="b" d="M290.57,114.95c0,2.91-.94,4.57-2.81,4.97-.32,.06-3.3,.38-8.95,.95-3.4,.38-8.47,.82-15.22,1.34,.4,1.87,1.63,3.3,3.67,4.28,1.67,.81,3.57,1.21,5.71,1.21,2.57,0,5.15-.69,7.74-2.08,1.09-.69,2.19-1.38,3.29-2.08,.61,.29,1.62,1.76,3.05,4.41s2.14,4.34,2.14,5.06c0,.2-.22,.53-.65,.99-3.52,3.78-8.98,5.66-16.39,5.66-6.86,0-12.39-2-16.6-6.01-4.32-4.06-6.49-9.5-6.49-16.3s1.93-12.06,5.79-16.3c3.98-4.38,9.25-6.57,15.82-6.57,5.53,0,10.23,2.02,14.09,6.05,3.86,4.04,5.79,8.83,5.79,14.4Zm-15.13-2.64c0-1.79-.63-3.36-1.9-4.71-1.27-1.35-2.78-2.03-4.54-2.03s-3.32,.76-4.5,2.29c-1.1,1.41-1.64,3.07-1.64,4.97,0,.78,.4,1.17,1.21,1.17,2.13,0,5.45-.33,9.94-.99,.95-.14,1.43-.37,1.43-.69Z"/><path class="b" d="M338.78,116.81c0,2.22,.13,5.52,.39,9.9s.39,7.67,.39,9.86c0,1.15-.5,1.77-1.51,1.86-3.57,.26-7.67,.39-12.28,.39-.55,0-.92-.83-1.1-2.49s-.41-2.5-.67-2.53c-.23,.12-.53,.36-.91,.74-3.23,3.26-6.69,4.88-10.38,4.88-5.62,0-10.28-2.22-13.96-6.66-3.49-4.15-5.23-9.11-5.23-14.87,0-6.66,1.8-12.02,5.4-16.08,3.75-4.21,8.88-6.31,15.39-6.31,4.52,0,8.1,1.58,10.72,4.75,.11,.14,.22,.22,.3,.22,.26,0,.55-.7,.89-2.1,.33-1.4,.73-2.1,1.19-2.1,1.07,0,3.1,.3,6.1,.91,2.85,.58,4.9,1.07,6.14,1.47,.43,.17,.65,.4,.65,.69,0,.12-.04,.42-.13,.91-.92,5.22-1.38,10.74-1.38,16.56Zm-13.92,.26c0-2.45-.77-4.47-2.31-6.07s-3.55-2.4-6.03-2.4-4.48,.79-6.01,2.38c-1.53,1.59-2.29,3.62-2.29,6.1,0,2.33,.81,4.34,2.42,6.01,1.61,1.67,3.57,2.51,5.88,2.51,2.45,0,4.45-.8,6.01-2.4s2.33-3.64,2.33-6.12Z"/><path class="b" d="M376.05,111.49c0,1.12-.62,1.69-1.86,1.69-.55,0-1.35-.04-2.4-.11s-1.84-.11-2.36-.11c-2.39,0-4.02,.38-4.89,1.12-.86,.75-1.3,2.26-1.3,4.54,0,1.24,.02,3.12,.07,5.64,.04,2.52,.06,4.4,.06,5.64,0,.84,.06,2.08,.17,3.74,.12,1.66,.17,2.89,.17,3.7,0,.69-.48,1.08-1.43,1.17-1.38,.11-3.5,.17-6.36,.17s-4.93-.09-6.57-.26c-.95-.12-1.43-.59-1.43-1.43,0-2.31,.01-5.76,.04-10.35,.03-4.6,.04-8.05,.04-10.35,0-6.77-.62-12.35-1.86-16.73-.06-.26-.09-.48-.09-.65,0-.43,.22-.72,.65-.86,1.58-.17,3.91-.49,6.96-.95,4.55-.89,6.9-1.34,7.05-1.34,.52,0,.85,.91,1,2.72,.14,1.82,.4,2.72,.78,2.72-.4,0,.78-.76,3.54-2.27,2.77-1.51,5.43-2.27,8-2.27,1.61,0,2.42,.35,2.42,1.04,0,.84-.09,2.02-.26,3.54-.17,1.64-.27,2.82-.3,3.54,0,.84,.01,1.95,.04,3.33,.06,1.7,.09,2.82,.09,3.37Z"/><path class="b" d="M424.08,137.17c0,.78-.4,1.23-1.21,1.34-.81,.11-2.91,.17-6.31,.17-3.63,0-5.88-.09-6.74-.26-.86-.17-1.3-.76-1.3-1.77,0-1.35,.04-3.4,.13-6.14,.09-2.74,.13-4.8,.13-6.18,0-1.07-.03-2.66-.09-4.78s-.09-3.71-.09-4.78c0-3.95-1.72-5.92-5.14-5.92-1.12,0-2.44,.49-3.93,1.47-1.61,1.1-2.42,2.18-2.42,3.24v23.35c0,.95-.45,1.48-1.34,1.6-1.01,.11-3.07,.17-6.18,.17-3.37,0-5.56-.09-6.57-.26-.89-.14-1.34-.62-1.34-1.43,0-2.25,.01-5.63,.04-10.16,.03-4.53,.04-7.93,.04-10.2,0-7.18-.56-12.81-1.69-16.9-.06-.26-.09-.48-.09-.65,0-.46,.22-.78,.65-.95,1.82-.2,4.24-.52,7.26-.95,4.58-.89,7.16-1.34,7.74-1.34,.32,0,.56,.97,.73,2.92s.42,2.92,.74,2.92c-.32,0,1.23-1,4.65-3s6.41-3,8.97-3c3.66,0,6.71,.86,9.17,2.59,2.74,1.99,4.11,4.76,4.11,8.3v13.79c0,1.87,.01,4.68,.04,8.41,.03,3.73,.04,6.54,.04,8.41Z"/></g><path class="e" d="M399.59,83.49c-.57,1.6-1.62,2.79-3.15,3.56-1.53,.77-3.1,.87-4.7,.3-1.6-.57-2.76-1.64-3.46-3.2-.7-1.56-.77-3.15-.2-4.75s1.61-2.78,3.13-3.52c1.52-.74,3.08-.83,4.68-.26s2.76,1.62,3.47,3.15c.71,1.53,.78,3.1,.21,4.7Zm18.01-23.87c-1.84,5.19-5.28,8.25-10.33,9.17-3.78,.67-6.13,1.88-7.05,3.62-.23,.46-.46,.92-.67,1.38-.3,.39-.75,.47-1.36,.26-2.1-.75-3.66-1.16-4.66-1.23-.21,0-.37-.02-.47-.06-.75-.27-.76-1.42-.04-3.46,.63-1.77,2.43-3.6,5.41-5.48,2.98-1.89,4.79-3.71,5.41-5.48,.96-2.69,0-4.54-2.85-5.55-1.81-.64-4.42-.77-7.82-.38-.9-.32-.4-3.13,1.49-8.45,.21-.58,.39-1.01,.56-1.28,.79-1.29,2.91-1.76,6.37-1.4,2.51,.26,4.84,.77,6.99,1.53,3.77,1.34,6.52,3.5,8.25,6.48,1.83,3.16,2.09,6.61,.76,10.33Z"/><path class="h" d="M114.61,49.52c.87,3.93,1.33,7.7,1.39,11.31-.08,3.73-.15,7.45-.21,11.15-.02,.84-.79,1.43-2.32,1.77-1.75,.39-2.8,.26-3.14-.39-3.57-6.48-5.46-10.19-5.67-11.14-.2-.88-.45-2.21-.75-3.98-.3-1.77-.55-3.09-.75-3.98-.22-.97-.57-2.42-1.07-4.35-.5-1.93-.85-3.38-1.07-4.35-.18-.8-.07-1.24,.32-1.33,.6-.13,1.52-.29,2.75-.48,1.23-.18,2.14-.34,2.75-.47,.6-.13,1.5-.38,2.69-.73,1.19-.35,2.09-.6,2.69-.73,.43-.1,1.23,2.47,2.39,7.69Zm7.12,32.08c.4,1.81,.18,3.44-.68,4.89-.86,1.45-2.19,2.37-4,2.77-1.83,.41-3.44,.14-4.81-.8-1.38-.94-2.27-2.33-2.67-4.16-.4-1.81-.17-3.43,.69-4.84,.86-1.42,2.2-2.32,4.01-2.73,1.79-.4,3.38-.14,4.77,.78,1.39,.91,2.29,2.28,2.69,4.09Z"/><g><g><path class="m" d="M295.66,63.31c-.04-.47-.13-1.8-.13-3.08,0-.41,.02-.97,.28-1.63,.05-.12,.1-.23,.15-.33,.33-.61,.94-1.13,1.7-1.26,.93-.15,1.89,.33,2.43,1,.54,.67,.75,1.49,.91,2.3,.44,2.2,.51,4.65-1.02,6.45-.96,1.12-2.42,1.84-3.89,2.42-1.4,.55-2.57,.88-3.02,.97-.6,.13-1.12,.2-1.54,.25-.09-.31-.2-.62-.32-.93-.71-1.76-1.59-2.54-2.38-3.33,.33-.33,.7-.66,1.13-.97,2.04-1.48,4.23-1.79,5.55-1.86h.13Z"/><path class="k" d="M274.64,51.57c-.05-.91-.36-1.68-1.14-1.87-.9-.23-1.48,.49-1.81,1.47-.36,1.02-.46,2.33-.42,3.13,0,.17,.02,.31,.04,.43,.06,.34,.15,.67,.33,.95,.18,.28,.47,.51,.81,.56,.63,.08,1.15-.49,1.45-1.05,.03-.05,.06-.11,.08-.17,.34-.73,.73-2.22,.66-3.44Zm12.71,17.07c1.31,3.26,.22,6.42-.13,7.45-1.24,3.59-3.82,5.61-5.17,6.64-3.49,2.66-7.12,3.32-9.18,3.68-.91,.16-4.95,.79-10.01-.35-2.95-.67-5.91-1.34-8.57-3.78-.77-.7-3.68-3.45-3.98-7.58-.18-2.45,.63-4.43,.89-5.07,1.2-2.89,2.62-2.98,2.99-5.06,.37-2.12-1-2.48-1.52-5.91-.17-1.1-.51-3.61,.56-6.47,1.02-2.72,2.82-4.38,3.95-5.39,.96-.87,2.71-2.41,5.55-3.38,3.07-1.04,5.67-.82,7.05-.7,1.07,.1,3.98,.46,7.15,2.19,1.45,.79,3.92,2.16,5.76,4.97,.45,.68,2.09,3.31,2.14,6.9,.05,3.59-1.54,4.26-.86,6.81,.66,2.46,2.27,2.33,3.38,5.08Zm-16.63,16c4.33-1.94,7.06-6.26,6.89-10.85-.19-5.08-3.89-9.52-9.03-10.7-5.27,1.64-8.56,6.86-7.8,12.15,.71,4.95,4.82,8.88,9.95,9.41Zm-1.65-25.19c.1-.8,.07-1.62-.09-2.41-.08-.41-.2-.82-.45-1.16-.24-.34-.63-.6-1.05-.61-.41,0-.84,.28-.91,.68-.74,1.46-.57,3.35,.45,4.64,.14,.18,.3,.35,.51,.43,.39,.16,.87-.04,1.13-.37,.27-.34,.36-.77,.41-1.19Zm-5.25-4.47c.04-.79-.06-2.1-.42-3.13-.34-.97-.91-1.69-1.82-1.46-.78,.19-1.09,.96-1.14,1.87h0c-.07,1.22,.33,2.71,.66,3.44,.03,.06,.06,.12,.08,.17,.3,.56,.82,1.13,1.45,1.05,.34-.04,.63-.27,.81-.56,.18-.28,.27-.62,.33-.95,.02-.12,.03-.26,.04-.43Z"/><path class="m" d="M283.44,95.93h.12c1.15,.3,2.3,.81,2.96,1.68,.66,.88,.65,2.19-.28,2.85-.59,.43-1.41,.51-2.18,.53-2.09,.05-4.2-.29-6.13-.98v.02c-.89-.36-1.6-1.1-2.05-1.95-.48-.88-.7-1.88-.84-2.88-.2-1.47-.21-2.96-.03-4.42,2.42-.48,5.82-1.39,9.17-3.76-.1,3.9-.39,7.88-.74,8.91Z"/><path class="n" d="M277.61,73.78c.17,4.59-2.56,8.91-6.89,10.85-5.13-.52-9.24-4.45-9.95-9.41-.76-5.29,2.53-10.5,7.8-12.15,5.14,1.18,8.84,5.63,9.03,10.7Z"/><path class="j" d="M273.9,55.17c-.3,.56-.82,1.13-1.45,1.05-.34-.04-.63-.27-.81-.56-.18-.28-.27-.62-.33-.95-.02-.11-.03-.26-.04-.43h0c.38-.48,1.01-.68,1.59-.53,.59,.16,1.03,.65,1.12,1.25-.03,.06-.06,.12-.08,.17Z"/><path class="j" d="M273.5,49.69c.78,.2,1.09,.96,1.14,1.87-.27,.66-.97,1.05-1.66,.94-.68-.1-1.21-.66-1.29-1.35,.34-.97,.91-1.69,1.81-1.47Z"/><path class="m" d="M272.32,28.96c-.15,2.43-1.28,5.27-2.65,7.27-.42,.62-.91,1.21-1.48,1.68-.28,.23-.58,.43-.9,.59-.99,.5-1.75,.46-2.69-.13l-.02-.09c-.01-.06-.03-.12-.04-.18-.3-1.37-.25-2.81,.13-4.16,.13-.48,.31-.95,.52-1.4,.64-1.33,1.64-2.5,2.92-3.19,1.28-.7,2.85-.9,4.22-.4Z"/><path d="M272.86,53.76c-.59-.16-1.21,.05-1.59,.53h0c-.04-.79,.06-2.1,.42-3.13,.08,.69,.61,1.24,1.29,1.35,.7,.11,1.39-.28,1.66-.94,.07,1.22-.33,2.71-.66,3.44-.09-.6-.53-1.09-1.12-1.25Z"/><path class="l" d="M266.58,55.94c.08-.4,.5-.69,.91-.68,.42,0,.8,.27,1.05,.61,.24,.34,.37,.75,.45,1.16,.16,.79,.19,1.61,.09,2.41-.05,.42-.15,.86-.41,1.19-.26,.34-.74,.54-1.13,.37-.21-.09-.37-.26-.51-.43-1.01-1.29-1.19-3.18-.45-4.64Z"/><path class="m" d="M264.57,38.29l.02,.09c.94,.59,1.7,.62,2.69,.13,.32-.16,.62-.36,.9-.59,.68,.03,1.27,.08,1.73,.12,1.3,.12,4.82,.56,8.67,2.65,1.75,.95,4.75,2.63,6.99,6.02,.54,.82,2.53,4.01,2.59,8.36,.07,4.36-1.87,5.16-1.04,8.26,.38,1.41,1.01,2.12,1.72,2.83,.79,.79,1.67,1.58,2.38,3.33,.12,.31,.23,.62,.32,.93,1.07,3.61-.08,6.96-.48,8.1-1.5,4.36-4.64,6.81-6.27,8.05-.2,.16-.41,.3-.61,.45-3.35,2.37-6.75,3.28-9.17,3.76-.49,.1-.94,.17-1.35,.24-1.01,.17-5.15,.83-10.52-.1-.53-.09-1.07-.2-1.62-.32-2.57-.58-5.15-1.17-7.6-2.56-.95-.54-1.89-1.2-2.8-2.03-.93-.85-4.45-4.18-4.82-9.19-.21-2.97,.76-5.37,1.08-6.14,.11-.26,.22-.51,.33-.73,1.17-2.37,2.42-2.93,3.03-4.46,.11-.28,.2-.59,.27-.95,.45-2.56-1.21-3-1.84-7.17-.2-1.33-.62-4.37,.68-7.85,1.24-3.3,3.42-5.31,4.78-6.54,1.16-1.05,3.28-2.92,6.73-4.09,.98-.33,1.93-.56,2.81-.71,.13,.04,.25,.08,.38,.12Zm22.65,37.8c.35-1.03,1.44-4.19,.13-7.45-1.1-2.75-2.72-2.62-3.38-5.08-.68-2.55,.91-3.21,.86-6.81-.05-3.59-1.69-6.22-2.14-6.9-1.84-2.8-4.32-4.18-5.76-4.97-3.17-1.72-6.08-2.08-7.15-2.19-1.37-.13-3.98-.34-7.05,.7-2.84,.97-4.59,2.51-5.55,3.38-1.12,1.01-2.93,2.67-3.95,5.39-1.07,2.87-.73,5.37-.56,6.47,.52,3.44,1.89,3.8,1.52,5.91-.37,2.09-1.79,2.17-2.99,5.06-.26,.63-1.07,2.62-.89,5.07,.3,4.13,3.21,6.88,3.98,7.58,2.67,2.44,5.63,3.12,8.57,3.78,5.06,1.15,9.09,.51,10.01,.35,2.06-.35,5.69-1.02,9.18-3.68,1.35-1.03,3.93-3.05,5.17-6.64Z"/><path class="m" d="M264.53,38.11c.01,.06,.03,.12,.04,.18-.13-.04-.26-.08-.38-.12-1.67-.54-3.32-1.17-4.62-2.33-2.06-1.84-2.9-4.92-2.05-7.55,2.29,.27,4.42,1.28,5.85,3.08,.57,.72,.99,1.62,1.29,2.59-.37,1.35-.42,2.79-.13,4.16Z"/><path d="M263.83,54.98c-.38-.47-1.01-.68-1.59-.53-.59,.16-1.03,.65-1.12,1.25-.34-.73-.73-2.22-.66-3.44,.27,.66,.97,1.05,1.66,.94,.68-.1,1.21-.66,1.29-1.35,.36,1.02,.46,2.33,.42,3.13h0Z"/><path class="j" d="M263.78,55.41c-.06,.33-.15,.67-.33,.95-.18,.29-.47,.51-.81,.56-.63,.08-1.15-.49-1.45-1.05-.03-.05-.06-.11-.08-.17,.09-.6,.53-1.09,1.12-1.25,.59-.16,1.21,.05,1.59,.53h0c0,.17-.02,.31-.04,.43Z"/><path class="j" d="M263.41,51.85c-.08,.69-.61,1.25-1.29,1.35-.7,.11-1.39-.28-1.66-.94h0c.05-.91,.36-1.68,1.14-1.87,.91-.23,1.48,.49,1.82,1.46Z"/><path class="m" d="M254.67,96.38c-.35-1.02-.63-4.49-.74-8.35,2.45,1.39,5.03,1.97,7.6,2.56,.55,.13,1.09,.23,1.62,.32l-.05,.29c.19,1.48,.18,2.99-.02,4.47-.13,1-.36,1.99-.84,2.88-.45,.84-1.15,1.59-2.04,1.95v-.02c-1.94,.7-4.05,1.03-6.14,.99-.77-.02-1.59-.1-2.18-.53-.93-.66-.94-1.97-.28-2.85,.66-.87,1.81-1.38,2.96-1.68l.11-.03Z"/><path class="m" d="M250.76,65.48c-.61,1.53-1.86,2.09-3.03,4.46-.45,.2-1.1,.43-1.91,.55-.66,.1-1.42,.21-2.33-.05-.38-.11-1.06-.36-1.76-1,.06,1.32-.04,3.67-1.41,5.57-.83,1.15-1.51,1.27-1.71,1.29-.75,.07-1.52-.35-1.93-.89-.41-.53-.54-1.16-.65-1.76-.25-1.44-.39-2.9-.05-4.29s1.19-2.73,2.64-3.53c.24-.13,.73-.42,1.49-.62,3.23-.85,9.57,.11,10.64,.28Z"/></g><g><path class="g" d="M266.58,55.94s0,.01,0,.02"/><path class="g" d="M266.58,55.94c-.74,1.46-.57,3.35,.45,4.64,.14,.18,.3,.35,.51,.43,.39,.16,.87-.04,1.13-.37,.27-.34,.36-.77,.41-1.19,.1-.8,.07-1.62-.09-2.41-.08-.41-.2-.82-.45-1.16-.24-.34-.63-.6-1.05-.61-.41,0-.84,.28-.91,.68Z"/><path class="g" d="M266.62,55.86s-.03,.05-.04,.08"/><path class="g" d="M250.76,65.48c-1.07-.17-7.41-1.13-10.64-.28-.76,.2-1.26,.49-1.49,.62-1.44,.8-2.3,2.14-2.64,3.53s-.2,2.86,.05,4.29c.1,.61,.24,1.23,.65,1.76,.41,.53,1.17,.96,1.93,.89,.2-.02,.88-.14,1.71-1.29,1.37-1.89,1.47-4.25,1.41-5.57"/><path class="g" d="M291.46,70.42s.06,0,.09,0c.41-.04,.94-.12,1.54-.25,.45-.1,1.62-.42,3.02-.97,1.47-.58,2.93-1.3,3.89-2.42,1.54-1.8,1.46-4.25,1.02-6.45-.16-.81-.37-1.63-.91-2.3-.54-.67-1.5-1.15-2.43-1-.77,.13-1.38,.65-1.7,1.26-.05,.1-.1,.2-.15,.33-.26,.66-.28,1.22-.28,1.63,0,1.29,.09,2.61,.13,3.08,0,.06,0,.1,0,.13"/><path class="g" d="M288.85,66.15c.33-.33,.7-.66,1.13-.97,2.04-1.48,4.23-1.79,5.55-1.86"/><path class="i" d="M264.19,38.16c-1.67-.54-3.32-1.17-4.62-2.33-2.06-1.84-2.9-4.92-2.05-7.55,2.29,.27,4.42,1.28,5.85,3.08,.57,.72,.99,1.62,1.29,2.59"/><path class="i" d="M264.57,38.29c-.01-.06-.03-.12-.04-.18-.3-1.37-.25-2.81,.13-4.16,.13-.48,.31-.95,.52-1.4,.64-1.33,1.64-2.5,2.92-3.19,1.28-.7,2.85-.9,4.22-.4-.15,2.43-1.28,5.27-2.65,7.27-.42,.62-.91,1.21-1.48,1.68"/><path class="i" d="M291.55,70.41c1.07,3.61-.08,6.96-.48,8.1-1.5,4.36-4.64,6.81-6.27,8.05-.2,.16-.41,.3-.61,.45-3.35,2.37-6.75,3.28-9.17,3.76-.49,.1-.94,.17-1.35,.24-1.01,.17-5.15,.83-10.52-.1-.53-.09-1.07-.2-1.62-.32-2.57-.58-5.15-1.17-7.6-2.56-.95-.54-1.89-1.2-2.8-2.03-.93-.85-4.45-4.18-4.82-9.19-.21-2.97,.76-5.37,1.08-6.14,.11-.26,.22-.51,.33-.73,1.17-2.37,2.42-2.93,3.03-4.46,.11-.28,.2-.59,.27-.95,.45-2.56-1.21-3-1.84-7.17-.2-1.33-.62-4.37,.68-7.85,1.24-3.3,3.42-5.31,4.78-6.54,1.16-1.05,3.28-2.92,6.73-4.09,.98-.33,1.93-.56,2.81-.71,.13,.04,.25,.08,.38,.12l.02,.09c.94,.59,1.7,.62,2.69,.13,.32-.16,.62-.36,.9-.59,.68,.03,1.27,.08,1.73,.12,1.3,.12,4.82,.56,8.67,2.65,1.75,.95,4.75,2.63,6.99,6.02,.54,.82,2.53,4.01,2.59,8.36,.07,4.36-1.87,5.16-1.04,8.26,.38,1.41,1.01,2.12,1.72,2.83,.79,.79,1.67,1.58,2.38,3.33,.12,.31,.23,.62,.32,.93Z"/><path class="i" d="M257.19,46.77c-1.12,1.01-2.93,2.67-3.95,5.39-1.07,2.87-.73,5.37-.56,6.47,.52,3.44,1.89,3.8,1.52,5.91-.37,2.09-1.79,2.17-2.99,5.06-.26,.63-1.07,2.62-.89,5.07,.3,4.13,3.21,6.88,3.98,7.58,2.67,2.44,5.63,3.12,8.57,3.78,5.06,1.15,9.09,.51,10.01,.35,2.06-.35,5.69-1.02,9.18-3.68,1.35-1.03,3.93-3.05,5.17-6.64,.35-1.03,1.44-4.19,.13-7.45-1.1-2.75-2.72-2.62-3.38-5.08-.68-2.55,.91-3.21,.86-6.81-.05-3.59-1.69-6.22-2.14-6.9-1.84-2.8-4.32-4.18-5.76-4.97-3.17-1.72-6.08-2.08-7.15-2.19-1.37-.13-3.98-.34-7.05,.7-2.84,.97-4.59,2.51-5.55,3.38Z"/><path class="i" d="M259.48,51.28c.06-.89,.14-1.82,.6-2.58,.47-.76,1.45-1.28,2.27-.92,.69,.3,1.01,1.09,1.21,1.82"/><path class="i" d="M260.45,52.26c-.07,1.22,.33,2.71,.66,3.44,.03,.06,.06,.12,.08,.17,.3,.56,.82,1.13,1.45,1.05,.34-.04,.63-.27,.81-.56,.18-.28,.27-.62,.33-.95,.02-.12,.03-.26,.04-.43,.04-.79-.06-2.1-.42-3.13-.34-.97-.91-1.69-1.82-1.46-.78,.19-1.09,.96-1.14,1.87"/><path class="i" d="M260.45,52.26h0c.27,.66,.97,1.05,1.66,.94,.68-.1,1.21-.66,1.29-1.35"/><path class="i" d="M261.11,55.7c.09-.6,.53-1.09,1.12-1.25,.59-.16,1.21,.05,1.59,.53"/><path class="i" d="M275.62,50.59c-.06-.89-.13-1.82-.6-2.58-.46-.76-1.45-1.28-2.27-.92-.69,.31-1.01,1.09-1.21,1.82"/><path class="i" d="M273.98,55c-.03,.06-.06,.12-.08,.17-.3,.56-.82,1.13-1.45,1.05-.34-.04-.63-.27-.81-.56-.18-.28-.27-.62-.33-.95-.02-.11-.03-.26-.04-.43-.04-.79,.06-2.1,.42-3.13,.34-.97,.91-1.69,1.81-1.47,.78,.2,1.09,.96,1.14,1.87,.07,1.22-.33,2.71-.66,3.44Z"/><path class="i" d="M274.64,51.56h0c-.27,.66-.97,1.05-1.66,.94-.68-.1-1.21-.66-1.29-1.35"/><path class="i" d="M273.98,55c-.09-.6-.53-1.09-1.12-1.25-.59-.16-1.21,.05-1.59,.53"/><path class="i" d="M270.73,84.63c-5.13-.52-9.24-4.45-9.95-9.41-.76-5.29,2.53-10.5,7.8-12.15,5.14,1.18,8.84,5.63,9.03,10.7,.17,4.59-2.56,8.91-6.89,10.85Z"/><path class="i" d="M253.93,88.03c.1,3.85,.39,7.32,.74,8.35,.03,.08,.05,.15,.08,.2,.18,.32,.45,.53,.45,.53,.37,.29,.8,.36,1.3,.38,.97,.04,1.87-.12,2.58-.31"/><path class="i" d="M254.56,96.42c-1.15,.3-2.3,.8-2.96,1.68-.66,.88-.64,2.19,.28,2.85,.59,.43,1.41,.51,2.18,.53,2.09,.05,4.2-.29,6.13-.99"/><path class="i" d="M260.08,100.55s.08-.03,.13-.05c.89-.36,1.59-1.1,2.04-1.95,.47-.88,.7-1.88,.84-2.88,.2-1.48,.21-2.99,.02-4.47"/><path class="i" d="M284.18,87.01c-.1,3.9-.39,7.88-.74,8.91-.02,.07-.05,.13-.07,.17-.18,.32-.45,.53-.45,.53-.37,.29-.8,.36-1.3,.38-.97,.04-1.88-.12-2.58-.31"/><path class="i" d="M283.57,95.93c1.15,.3,2.3,.8,2.96,1.67,.66,.88,.65,2.19-.28,2.85-.59,.43-1.41,.51-2.18,.53-2.09,.05-4.2-.29-6.13-.98"/><path class="i" d="M278.05,100.07s-.08-.03-.13-.05c-.89-.36-1.59-1.1-2.04-1.95-.48-.88-.7-1.88-.84-2.88-.2-1.47-.21-2.96-.03-4.42,0-.02,0-.03,0-.05"/><path class="g" d="M241.73,69.44c.7,.63,1.38,.89,1.76,1,.91,.26,1.67,.15,2.33,.05,.81-.12,1.46-.35,1.91-.55"/></g></g><path class="d" d="M295.82,54.43c-.25,.72-.69,1.23-1.3,1.55-.61,.32-1.27,.35-1.99,.09-.72-.26-1.22-.7-1.5-1.32-.27-.62-.28-1.3-.02-2.02,.25-.72,.68-1.23,1.29-1.53s1.27-.33,1.98-.07c.71,.25,1.2,.69,1.49,1.31,.28,.62,.3,1.29,.04,2Zm4.5-12.67c-.55,1.55-1.21,2.96-1.97,4.22-.84,1.28-1.67,2.55-2.5,3.82-.19,.29-.58,.32-1.19,.11-.69-.25-1.03-.52-1-.82,.17-3.02,.32-4.72,.45-5.09,.12-.35,.33-.86,.61-1.54,.28-.68,.48-1.19,.6-1.54,.14-.38,.33-.96,.58-1.74,.25-.78,.44-1.36,.57-1.74,.11-.31,.24-.45,.4-.39,.24,.08,.59,.23,1.06,.43s.82,.35,1.06,.43c.24,.08,.6,.19,1.09,.33,.49,.14,.85,.25,1.09,.33,.17,.06-.11,1.12-.84,3.18Z"/></svg>